<?xml version="1.0" encoding="utf-8"?>
<!-- Generator: Adobe Illustrator 27.1.1, SVG Export Plug-In . SVG Version: 6.00 Build 0)  -->
<svg version="1.1" id="Calque_1" xmlns="http://www.w3.org/2000/svg" xmlns:xlink="http://www.w3.org/1999/xlink" x="0px" y="0px"
	 viewBox="0 0 666.7 664" style="enable-background:new 0 0 666.7 664;" xml:space="preserve">
<path d="M333.3,0C150,0,0,149.7,0,334c0,166.7,122,305,281.3,330V430.7h-84.7V334h84.7v-73.7c0-83.7,49.7-129.7,126-129.7
	c36.3,0,74.3,6.3,74.3,6.3v82.3h-42c-41.3,0-54.3,25.7-54.3,52V334H478l-15,96.7h-77.7V664c78.5-12.4,150.1-52.5,201.7-113
	c51.6-60.5,79.8-137.5,79.7-217C666.7,149.7,516.7,0,333.3,0z"/>
</svg>
